<svg xmlns="http://www.w3.org/2000/svg" width="64.119" height="89.94" viewBox="0 0 64.119 89.94">
  <path id="_2" data-name="2" d="M7.192,0V-13.517L38.775-42.761q4.029-3.9,6.78-7.018a26.756,26.756,0,0,0,4.181-6.13,15.006,15.006,0,0,0,1.43-6.52,12.436,12.436,0,0,0-1.776-6.737,11.857,11.857,0,0,0-4.852-4.376,15.385,15.385,0,0,0-6.975-1.538,14.669,14.669,0,0,0-7.105,1.646,11.347,11.347,0,0,0-4.679,4.722,15.31,15.31,0,0,0-1.646,7.322H6.325a28.29,28.29,0,0,1,3.942-15.12,26.33,26.33,0,0,1,11.048-9.921A36.524,36.524,0,0,1,37.692-89.94a38.422,38.422,0,0,1,16.615,3.358A26.5,26.5,0,0,1,65.332-77.29a24.02,24.02,0,0,1,3.942,13.6A26.358,26.358,0,0,1,67.3-53.765a41.7,41.7,0,0,1-7,10.853A158.829,158.829,0,0,1,46.14-28.637L33.186-15.943v.607H70.445V0Z" transform="translate(-6.325 89.94)" fill="#00a988"/>
</svg>
