<svg xmlns="http://www.w3.org/2000/svg" width="67.802" height="91.153" viewBox="0 0 67.802 91.153">
  <path id="_3" data-name="3" d="M39.988,1.213A42.136,42.136,0,0,1,22.723-2.145a29.057,29.057,0,0,1-11.914-9.271A23.123,23.123,0,0,1,6.325-25.085H25.214a9.674,9.674,0,0,0,2.145,5.7A12.8,12.8,0,0,0,32.623-15.6a19.46,19.46,0,0,0,7.408,1.343,17.944,17.944,0,0,0,7.582-1.516,12.438,12.438,0,0,0,5.156-4.2,10.6,10.6,0,0,0,1.863-6.2,10.548,10.548,0,0,0-1.971-6.3,12.971,12.971,0,0,0-5.632-4.311,22.068,22.068,0,0,0-8.686-1.56H30.067V-52.119h8.275a18.134,18.134,0,0,0,7.517-1.473,12.041,12.041,0,0,0,5.091-4.094,10.481,10.481,0,0,0,1.82-6.13,10.858,10.858,0,0,0-1.581-5.87,10.812,10.812,0,0,0-4.419-3.964,14.5,14.5,0,0,0-6.607-1.43,17.423,17.423,0,0,0-6.975,1.365,12.359,12.359,0,0,0-5.069,3.877,10.146,10.146,0,0,0-2.036,5.892H8.1a23.1,23.1,0,0,1,4.376-13.517,28.545,28.545,0,0,1,11.459-9.163A38.638,38.638,0,0,1,40.248-89.94,36.48,36.48,0,0,1,56.321-86.6a26.63,26.63,0,0,1,10.723,8.99,21.817,21.817,0,0,1,3.791,12.672,17.348,17.348,0,0,1-4.614,12.434,21.2,21.2,0,0,1-12.109,6.325v.693q9.791,1.256,14.925,6.78a19.332,19.332,0,0,1,5.091,13.8,21.719,21.719,0,0,1-4.354,13.474A29.466,29.466,0,0,1,57.664-2.166,43.659,43.659,0,0,1,39.988,1.213Z" transform="translate(-6.325 89.94)" fill="#00a988"/>
</svg>
