<svg xmlns="http://www.w3.org/2000/svg" width="32.088" height="44.233" viewBox="0 0 32.088 44.233">
  <path id="_5" data-name="5" d="M19.474.6a18.652,18.652,0,0,1-8.043-1.662A14,14,0,0,1,5.838-5.646a11.767,11.767,0,0,1-2.152-6.69h8.949a5.445,5.445,0,0,0,2.131,4.112,7.333,7.333,0,0,0,4.709,1.577,7.529,7.529,0,0,0,3.846-.969,6.863,6.863,0,0,0,2.621-2.706,8.2,8.2,0,0,0,.948-4,8.207,8.207,0,0,0-.969-4.048,7,7,0,0,0-2.674-2.727,7.838,7.838,0,0,0-3.9-1,9.178,9.178,0,0,0-3.718.788,6.726,6.726,0,0,0-2.8,2.152l-8.2-1.47L6.69-43.636H33.366v7.543H14.3l-1.129,10.93h.256A8.45,8.45,0,0,1,16.9-27.848a12.326,12.326,0,0,1,5.2-1.065,13.4,13.4,0,0,1,7.031,1.854,13.37,13.37,0,0,1,4.879,5.082,14.9,14.9,0,0,1,1.768,7.425,14.754,14.754,0,0,1-2.035,7.83,14.418,14.418,0,0,1-5.732,5.369A17.945,17.945,0,0,1,19.474.6Z" transform="translate(-3.686 43.636)" fill="#00a988"/>
</svg>
